<svg width="300" height="67" viewBox="0 0 300 67" fill="none" xmlns="http://www.w3.org/2000/svg">
<path d="M17.5843 17.7301C17.5447 8.67928 17.4077 10.4809 17.5941 10.3936H9V22.6757H9.2394C9.10288 22.8182 9.02573 22.9682 9.02573 23.1423V38.1057C9.00882 38.1597 9 38.2157 9 38.2745V57.2914H17.5941V50.508H17.6198V42.823C17.683 42.6036 17.8534 42.4289 18.0238 42.3491L30.1092 35.3065C30.4315 35.1053 30.7538 35.1053 31.076 35.3065L43.1077 42.3491C43.3226 42.5 43.4837 42.7013 43.4837 43.0031V57.2914H52.0778V50.508H52.1035V23.1423C52.1035 22.8404 51.8887 22.5889 51.6738 22.4883L31.048 10.4152C30.6721 10.2643 30.2961 10.2643 30.0812 10.4152L17.5843 17.7301ZM17.6198 32.8265V27.8709C17.6198 27.569 17.8347 27.3175 18.0495 27.2169L30.1349 20.1743C30.4572 19.9731 30.7795 19.9731 31.1018 20.1743L43.1335 27.2169C43.3483 27.3679 43.5095 27.569 43.5095 27.8709V32.8566L31.0223 25.5474C30.6463 25.3965 30.2703 25.3965 30.0555 25.5474L17.6198 32.8265ZM34.8897 45.0093H26.2956V57.2914H34.8897C34.8897 42.7013 34.6748 45.1099 34.8897 45.0093Z" fill="#6366F1"/>
<path d="M84.0508 44.4339C84.9984 44.4339 85.7324 44.1803 86.2529 43.6731C86.7734 43.1526 87.027 42.4319 87.0137 41.511H93.3398C93.3398 43.8867 92.4857 45.8352 90.7773 47.3567C89.0824 48.8782 86.8936 49.6389 84.2109 49.6389C81.0612 49.6389 78.5788 48.6513 76.7637 46.676C74.9486 44.7008 74.041 41.9648 74.041 38.468V38.1878C74.041 35.999 74.4414 34.0704 75.2422 32.4021C76.0563 30.7205 77.2241 29.4326 78.7456 28.5383C80.2671 27.6308 82.0688 27.177 84.1509 27.177C86.967 27.177 89.2025 27.9578 90.8574 29.5193C92.5124 31.0808 93.3398 33.1962 93.3398 35.8655H87.0137C87.0137 34.7444 86.7401 33.8836 86.1929 33.283C85.6457 32.6824 84.9116 32.3821 83.9907 32.3821C82.2424 32.3821 81.2214 33.4965 80.9277 35.7254C80.8343 36.4327 80.7876 37.407 80.7876 38.6482C80.7876 40.8237 81.0479 42.3318 81.5684 43.1726C82.0889 44.0134 82.9163 44.4339 84.0508 44.4339ZM96.1618 38.2078C96.1618 36.0457 96.5822 34.1238 97.423 32.4422C98.2638 30.7472 99.4717 29.4459 101.047 28.5383C102.621 27.6308 104.47 27.177 106.592 27.177C109.835 27.177 112.391 28.1847 114.259 30.2C116.128 32.2019 117.062 34.9313 117.062 38.388V38.6282C117.062 42.0048 116.121 44.6874 114.239 46.676C112.371 48.6513 109.835 49.6389 106.632 49.6389C103.549 49.6389 101.073 48.718 99.2048 46.8762C97.3363 45.0211 96.3286 42.512 96.1818 39.3489L96.1618 38.2078ZM102.908 38.6282C102.908 40.6301 103.222 42.0982 103.849 43.0325C104.477 43.9667 105.404 44.4339 106.632 44.4339C109.034 44.4339 110.262 42.5854 110.316 38.8884V38.2078C110.316 34.324 109.074 32.3821 106.592 32.3821C104.336 32.3821 103.115 34.0571 102.928 37.407L102.908 38.6282ZM127.231 27.5774L127.452 30.1199C128.986 28.158 131.048 27.177 133.638 27.177C136.374 27.177 138.222 28.2647 139.183 30.4402C140.651 28.2647 142.773 27.177 145.549 27.177C149.94 27.177 152.196 29.8329 152.316 35.1448V49.2385H145.549V35.5652C145.549 34.4575 145.362 33.65 144.989 33.1428C144.615 32.6357 143.934 32.3821 142.947 32.3821C141.612 32.3821 140.618 32.976 139.964 34.1638L139.984 34.4441V49.2385H133.217V35.6052C133.217 34.4708 133.037 33.65 132.677 33.1428C132.316 32.6357 131.629 32.3821 130.615 32.3821C129.32 32.3821 128.332 32.976 127.652 34.1638V49.2385H120.905V27.5774H127.231ZM163.366 27.5774L163.586 30.1199C165.121 28.158 167.183 27.177 169.772 27.177C172.508 27.177 174.356 28.2647 175.317 30.4402C176.786 28.2647 178.908 27.177 181.684 27.177C186.075 27.177 188.33 29.8329 188.45 35.1448V49.2385H181.684V35.5652C181.684 34.4575 181.497 33.65 181.123 33.1428C180.749 32.6357 180.069 32.3821 179.081 32.3821C177.746 32.3821 176.752 32.976 176.098 34.1638L176.118 34.4441V49.2385H169.352V35.6052C169.352 34.4708 169.171 33.65 168.811 33.1428C168.451 32.6357 167.763 32.3821 166.749 32.3821C165.454 32.3821 164.467 32.976 163.786 34.1638V49.2385H157.04V27.5774H163.366ZM206.027 46.8963C204.599 48.7247 202.67 49.6389 200.241 49.6389C197.865 49.6389 196.064 48.9516 194.836 47.5769C193.621 46.1889 193.014 44.2003 193.014 41.6111V27.5774H199.76V41.6511C199.76 43.5063 200.661 44.4339 202.463 44.4339C204.011 44.4339 205.112 43.88 205.766 42.7722V27.5774H212.553V49.2385H206.227L206.027 46.8963ZM223.283 27.5774L223.503 30.1199C224.998 28.158 227.06 27.177 229.689 27.177C231.944 27.177 233.626 27.851 234.734 29.199C235.855 30.547 236.435 32.5756 236.475 35.2849V49.2385H229.709V35.5652C229.709 34.4708 229.489 33.67 229.048 33.1629C228.608 32.6424 227.807 32.3821 226.646 32.3821C225.325 32.3821 224.344 32.9026 223.703 33.9436V49.2385H216.956V27.5774H223.283ZM248.166 49.2385H241.399V27.5774H248.166V49.2385ZM240.999 21.992C240.999 21.031 241.346 20.2436 242.04 19.6297C242.734 19.0157 243.635 18.7088 244.743 18.7088C245.85 18.7088 246.751 19.0157 247.445 19.6297C248.139 20.2436 248.486 21.031 248.486 21.992C248.486 22.9529 248.139 23.7403 247.445 24.3543C246.751 24.9682 245.85 25.2752 244.743 25.2752C243.635 25.2752 242.734 24.9682 242.04 24.3543C241.346 23.7403 240.999 22.9529 240.999 21.992ZM261.018 22.1922V27.5774H264.581V32.262H261.018V42.1716C261.018 42.9858 261.165 43.553 261.458 43.8733C261.752 44.1936 262.332 44.3538 263.2 44.3538C263.867 44.3538 264.428 44.3137 264.882 44.2337V49.0584C263.667 49.4454 262.399 49.6389 261.078 49.6389C258.756 49.6389 257.041 49.0917 255.933 47.9973C254.825 46.9029 254.271 45.2413 254.271 43.0125V32.262H251.509V27.5774H254.271V22.1922H261.018ZM276.732 39.7893L280.336 27.5774H287.563L278.734 52.8621L278.354 53.783C277.099 56.5857 274.884 57.9871 271.707 57.9871C270.827 57.9871 269.899 57.8536 268.925 57.5867V52.762H269.806C270.753 52.762 271.474 52.6218 271.968 52.3416C272.475 52.0746 272.849 51.5875 273.089 50.8801L273.629 49.4387L266.102 27.5774H273.309L276.732 39.7893Z" fill="white"/>
</svg>
