<svg width="50" height="50" viewBox="0 0 50 50" fill="none" xmlns="http://www.w3.org/2000/svg">
<path d="M11.5843 8.92813C11.5447 -0.122723 11.4077 1.67891 11.5941 1.59163H3V13.8737H3.2394C3.10288 14.0162 3.02573 14.1662 3.02573 14.3403V29.3037C3.00882 29.3577 3 29.4137 3 29.4725V48.4894H11.5941V41.706H11.6198V34.021C11.683 33.8016 11.8534 33.6269 12.0238 33.5471L24.1092 26.5045C24.4315 26.3033 24.7538 26.3033 25.076 26.5045L37.1077 33.5471C37.3226 33.698 37.4837 33.8993 37.4837 34.2011V48.4894H46.0778V41.706H46.1035V14.3403C46.1035 14.0384 45.8887 13.7869 45.6738 13.6863L25.048 1.61318C24.6721 1.46228 24.2961 1.46228 24.0812 1.61318L11.5843 8.92813ZM11.6198 24.0245V19.0689C11.6198 18.7671 11.8347 18.5155 12.0495 18.4149L24.1349 11.3723C24.4572 11.1711 24.7795 11.1711 25.1018 11.3723L37.1335 18.4149C37.3483 18.5659 37.5095 18.7671 37.5095 19.0689V24.0546L25.0223 16.7454C24.6463 16.5945 24.2703 16.5945 24.0555 16.7454L11.6198 24.0245ZM28.8897 36.2073H20.2956V48.4894H28.8897C28.8897 33.8993 28.6748 36.3079 28.8897 36.2073Z" fill="#6366F1"/>
</svg>
